<svg width="14.625000" height="14.625000" viewBox="0 0 14.625 14.625" fill="none" xmlns="http://www.w3.org/2000/svg" xmlns:xlink="http://www.w3.org/1999/xlink">
	<desc>
			Created with Pixso.
	</desc>
	<defs/>
	<path id="Vector" d="M7.3125 0C5.86624 0 4.45242 0.428955 3.24991 1.23242C2.04736 2.03589 1.11011 3.17798 0.556641 4.51416C0.00317383 5.85034 -0.141632 7.32056 0.140503 8.73901C0.422668 10.1575 1.11911 11.4604 2.14178 12.4832C3.16446 13.5059 4.46741 14.2024 5.88589 14.4844C7.30438 14.7666 8.77469 14.6218 10.1109 14.0684C11.4471 13.5149 12.5891 12.5776 13.3926 11.375C14.1961 10.1726 14.625 8.75879 14.625 7.3125C14.623 5.37378 13.8519 3.51489 12.481 2.14404C11.11 0.773193 9.25128 0.00195312 7.3125 0ZM7.875 13.4739L7.875 9L9.5625 9C9.7117 9 9.85477 8.94067 9.96027 8.83521C10.0657 8.72974 10.125 8.58667 10.125 8.4375C10.125 8.28833 10.0657 8.14526 9.96027 8.03979C9.85477 7.93433 9.7117 7.875 9.5625 7.875L7.875 7.875L7.875 6.1875C7.875 5.88916 7.99353 5.60303 8.2045 5.39209C8.4155 5.18091 8.70163 5.0625 9 5.0625L10.125 5.0625C10.2742 5.0625 10.4173 5.00317 10.5228 4.89771C10.6282 4.79224 10.6875 4.64917 10.6875 4.5C10.6875 4.35083 10.6282 4.20776 10.5228 4.10229C10.4173 3.99683 10.2742 3.9375 10.125 3.9375L9 3.9375C8.40326 3.9375 7.83096 4.17456 7.40903 4.59644C6.98706 5.01855 6.75 5.59082 6.75 6.1875L6.75 7.875L5.0625 7.875C4.91333 7.875 4.77023 7.93433 4.66476 8.03979C4.55927 8.14526 4.5 8.28833 4.5 8.4375C4.5 8.58667 4.55927 8.72974 4.66476 8.83521C4.77023 8.94067 4.91333 9 5.0625 9L6.75 9L6.75 13.4739C5.16431 13.3293 3.69547 12.5789 2.64899 11.3787C1.60251 10.1785 1.05896 8.62109 1.13141 7.03052C1.20386 5.43994 1.88672 3.93848 3.03796 2.83838C4.18924 1.73853 5.72021 1.12451 7.3125 1.12451C8.90479 1.12451 10.4358 1.73853 11.587 2.83838C12.7383 3.93848 13.4211 5.43994 13.4936 7.03052C13.566 8.62109 13.0225 10.1785 11.976 11.3787C10.9295 12.5789 9.46069 13.3293 7.875 13.4739Z" fill="#000000" fill-opacity="1.000000" fill-rule="nonzero"/>
</svg>
