<svg width="18.000000" height="18.000000" viewBox="0 0 18 18" fill="none" xmlns="http://www.w3.org/2000/svg" xmlns:xlink="http://www.w3.org/1999/xlink">
	<desc>
			Created with Pixso.
	</desc>
	<defs>
		<clipPath id="clip70_2867">
			<rect id="ph:instagram-logo" width="18.000000" height="18.000000" fill="white" fill-opacity="0"/>
		</clipPath>
	</defs>
	<rect id="ph:instagram-logo" width="18.000000" height="18.000000" fill="#FFFFFF" fill-opacity="0"/>
	<g clip-path="url(#clip70_2867)">
		<path id="Vector" d="M9 5.625C8.33249 5.625 7.67996 5.823 7.12494 6.19385C6.56995 6.5647 6.13736 7.0918 5.8819 7.7085C5.62646 8.3252 5.55963 9.00366 5.68985 9.65845C5.82007 10.3132 6.14151 10.9146 6.61353 11.3865C7.08551 11.8584 7.68689 12.1799 8.34158 12.3101C8.99625 12.4404 9.67487 12.3735 10.2916 12.1182C10.9083 11.8625 11.4354 11.4302 11.8062 10.875C12.1771 10.3201 12.375 9.66748 12.375 9C12.3741 8.10522 12.0182 7.24731 11.3855 6.6145C10.7527 5.98169 9.89481 5.62598 9 5.625ZM9 11.25C8.55499 11.25 8.11996 11.1179 7.74997 10.8708C7.37994 10.6235 7.09155 10.2722 6.92126 9.86108C6.75098 9.44995 6.70642 8.99756 6.79324 8.56104C6.88004 8.12451 7.09433 7.72363 7.409 7.40894C7.72366 7.09424 8.1246 6.88013 8.56104 6.79321C8.9975 6.7063 9.44989 6.75098 9.86102 6.92139C10.2722 7.09155 10.6236 7.37988 10.8708 7.75C11.118 8.11987 11.25 8.55493 11.25 9C11.25 9.59668 11.0129 10.1689 10.591 10.5911C10.169 11.0129 9.59674 11.25 9 11.25ZM12.375 1.6875L5.625 1.6875C4.58105 1.68872 3.58017 2.10376 2.84201 2.84204C2.10382 3.58008 1.68863 4.58105 1.6875 5.625L1.6875 12.375C1.68863 13.4189 2.10382 14.4199 2.84201 15.158C3.58017 15.8962 4.58105 16.3113 5.625 16.3125L12.375 16.3125C13.4189 16.3113 14.4198 15.8962 15.158 15.158C15.8962 14.4199 16.3114 13.4189 16.3125 12.375L16.3125 5.625C16.3114 4.58105 15.8962 3.58008 15.158 2.84204C14.4198 2.10376 13.4189 1.68872 12.375 1.6875ZM15.1875 12.375C15.1875 13.1208 14.8912 13.8362 14.3637 14.3638C13.8363 14.8911 13.1209 15.1875 12.375 15.1875L5.625 15.1875C4.87909 15.1875 4.1637 14.8911 3.63626 14.3638C3.10883 13.8362 2.8125 13.1208 2.8125 12.375L2.8125 5.625C2.8125 4.87915 3.10883 4.16382 3.63626 3.63623C4.1637 3.10889 4.87909 2.8125 5.625 2.8125L12.375 2.8125C13.1209 2.8125 13.8363 3.10889 14.3637 3.63623C14.8912 4.16382 15.1875 4.87915 15.1875 5.625L15.1875 12.375ZM13.5 5.34375C13.5 5.51074 13.4505 5.67383 13.3578 5.8125C13.2651 5.95117 13.1333 6.05933 12.9791 6.12329C12.825 6.18726 12.6553 6.20386 12.4916 6.17139C12.328 6.13867 12.1776 6.05835 12.0596 5.94043C11.9416 5.82227 11.8613 5.67212 11.8287 5.5083C11.7961 5.34473 11.8129 5.17505 11.8767 5.02075C11.9406 4.8667 12.0487 4.73486 12.1875 4.64209C12.3262 4.54956 12.4894 4.5 12.6562 4.5C12.88 4.5 13.0946 4.58887 13.2529 4.74707C13.4111 4.90527 13.5 5.11987 13.5 5.34375Z" fill="#000000" fill-opacity="1.000000" fill-rule="nonzero"/>
	</g>
</svg>
