<svg width="18.000000" height="18.000000" viewBox="0 0 18 18" fill="none" xmlns="http://www.w3.org/2000/svg" xmlns:xlink="http://www.w3.org/1999/xlink">
	<desc>
			Created with Pixso.
	</desc>
	<defs>
		<clipPath id="clip70_2869">
			<rect id="typcn:social-linkedin-circular" width="18.000000" height="18.000000" fill="white" fill-opacity="0"/>
		</clipPath>
	</defs>
	<rect id="typcn:social-linkedin-circular" width="18.000000" height="18.000000" fill="#FFFFFF" fill-opacity="0"/>
	<g clip-path="url(#clip70_2869)">
		<path id="Vector" d="M7.52475 11.4751L6.32474 11.4751L6.32474 7.57568L7.52475 7.57568L7.52475 11.4751ZM6.92474 7.07544C6.492 7.07544 6.27524 6.87524 6.27524 6.47559C6.2739 6.39526 6.28998 6.31567 6.32236 6.24219C6.35471 6.16895 6.40262 6.10327 6.46274 6.05029C6.5878 5.93359 6.75378 5.87085 6.92474 5.87549C7.35751 5.87549 7.57425 6.07642 7.57425 6.47632C7.57425 6.87598 7.35825 7.07544 6.92474 7.07544ZM11.9753 11.4751L10.7505 11.4751L10.7505 9.30005C10.7505 8.73364 10.5495 8.4502 10.1497 8.4502C9.83325 8.4502 9.62549 8.6084 9.52426 8.92505C9.492 8.97534 9.47476 9.07568 9.47476 9.2251L9.47476 11.4751L8.25 11.4751L8.25 8.8252C8.25 8.22534 8.241 7.80908 8.22525 7.57568L9.27524 7.57568L9.35025 8.1001C9.62549 7.68311 10.0252 7.47534 10.575 7.47534C10.9927 7.47534 11.3295 7.62085 11.5875 7.9126C11.847 8.20435 11.976 8.625 11.976 9.17554L11.976 11.4751L11.9753 11.4751ZM9 15.75C5.27774 15.75 2.25 12.7222 2.25 9C2.25 5.27783 5.27774 2.25 9 2.25C12.7223 2.25 15.75 5.27783 15.75 9C15.75 12.7222 12.7223 15.75 9 15.75ZM9 3.75C6.10574 3.75 3.75 6.10571 3.75 9C3.75 11.8943 6.10574 14.25 9 14.25C11.8943 14.25 14.25 11.8943 14.25 9C14.25 6.10571 11.8943 3.75 9 3.75Z" fill="#000000" fill-opacity="1.000000" fill-rule="nonzero"/>
	</g>
</svg>
