<svg width="18.000000" height="18.000000" viewBox="0 0 18 18" fill="none" xmlns="http://www.w3.org/2000/svg" xmlns:xlink="http://www.w3.org/1999/xlink">
	<desc>
			Created with Pixso.
	</desc>
	<defs>
		<clipPath id="clip70_2871">
			<rect id="streamline:computer-logo-youtube-youtube-clip-social-video" width="18.000000" height="18.000000" fill="white" fill-opacity="0"/>
		</clipPath>
	</defs>
	<rect id="streamline:computer-logo-youtube-youtube-clip-social-video" width="18.000000" height="18.000000" fill="#FFFFFF" fill-opacity="0"/>
	<g clip-path="url(#clip70_2871)">
		<path id="Vector" d="M14.7857 2.57129C16.2059 2.57129 17.3571 3.72266 17.3571 5.14282L17.3571 12.8569C17.3571 14.2771 16.2059 15.4285 14.7857 15.4285L3.21429 15.4285C1.79413 15.4285 0.642853 14.2771 0.642853 12.8569L0.642853 5.14282C0.642853 3.72266 1.79413 2.57129 3.21429 2.57129L14.7857 2.57129Z" stroke="#000000" stroke-opacity="1.000000" stroke-width="1.000000" stroke-linejoin="round"/>
		<path id="Vector" d="M6.82715 6.58301C6.82446 6.49194 6.84671 6.40186 6.89145 6.32227C6.93622 6.24268 7.0018 6.177 7.08115 6.13208C7.16049 6.08716 7.25061 6.0647 7.3418 6.06714C7.43298 6.06958 7.52176 6.09668 7.59857 6.146L12.2271 8.84595C12.3045 8.89136 12.3686 8.95605 12.4132 9.03394C12.4577 9.11182 12.4812 9.19995 12.4812 9.28955C12.4812 9.37915 12.4577 9.46729 12.4132 9.54517C12.3686 9.6228 12.3045 9.68774 12.2271 9.73315L7.59857 12.4331C7.52005 12.4785 7.43094 12.5022 7.34027 12.502C7.2496 12.5017 7.16061 12.4775 7.08228 12.4319C7.00397 12.3862 6.93912 12.3206 6.89432 12.2419C6.84952 12.1631 6.82632 12.0737 6.82715 11.9832L6.82715 6.58301Z" stroke="#000000" stroke-opacity="1.000000" stroke-width="1.000000" stroke-linejoin="round"/>
	</g>
</svg>
